# xmcd
#
# Track frame offsets:
#	150
#	21050
#	39039
#	52921
#	70565
#	91195
#	111098
#	132088
#	186659
#
# Disc length: 2835 seconds
#
# Revision: 1
# Processed by: cddbd v1.4PL0 Copyright (c) Steve Scherf et al.
# Submitted via: audiograbber 1.81.03
#
DISCID=680b1109
DTITLE=Eric Clapton - Crossroads 2 (Live In The Seventies) [CD3]
DYEAR=1996
DGENRE=Blues
TTITLE0=Tell the Truth
TTITLE1=Knocking on Heavens door
TTITLE2=Stormy Monday
TTITLE3=Lay Down Sally
TTITLE4=The Core
TTITLE5=We're all the Way
TTITLE6=Cocaine
TTITLE7=Goin' Down Slow - Rambling on My Mind
TTITLE8=Mean Old Frisco
EXTD=
EXTT0=
EXTT1=
EXTT2=
EXTT3=
EXTT4=
EXTT5=
EXTT6=
EXTT7=
EXTT8=
PLAYORDER=
